<?xml version="1.0" encoding="UTF-8" standalone="no"?>
<!-- Created with Inkscape (http://www.inkscape.org/) -->

<svg
   xmlns:dc="http://purl.org/dc/elements/1.1/"
   xmlns:cc="http://creativecommons.org/ns#"
   xmlns:rdf="http://www.w3.org/1999/02/22-rdf-syntax-ns#"
   xmlns:svg="http://www.w3.org/2000/svg"
   xmlns="http://www.w3.org/2000/svg"
   xmlns:sodipodi="http://sodipodi.sourceforge.net/DTD/sodipodi-0.dtd"
   xmlns:inkscape="http://www.inkscape.org/namespaces/inkscape"
   id="svg4608"
   version="1.1"
   inkscape:version="0.91 r13725"
   width="190"
   height="190"
   viewBox="0 0 190 190"
   sodipodi:docname="logo.svg">
  <metadata
     id="metadata4614">
    <rdf:RDF>
      <cc:Work
         rdf:about="">
        <dc:format>image/svg+xml</dc:format>
        <dc:type
           rdf:resource="http://purl.org/dc/dcmitype/StillImage" />
        <dc:title></dc:title>
      </cc:Work>
    </rdf:RDF>
  </metadata>
  <defs
     id="defs4612" />
  <sodipodi:namedview
     pagecolor="#ffffff"
     bordercolor="#666666"
     borderopacity="1"
     objecttolerance="10"
     gridtolerance="10"
     guidetolerance="10"
     inkscape:pageopacity="0"
     inkscape:pageshadow="2"
     inkscape:window-width="1200"
     inkscape:window-height="976"
     id="namedview4610"
     showgrid="false"
     inkscape:zoom="1.2421053"
     inkscape:cx="83.123187"
     inkscape:cy="95"
     inkscape:window-x="1684"
     inkscape:window-y="303"
     inkscape:window-maximized="0"
     inkscape:current-layer="svg4608" />
  <path
     style="fill:#000000"
     d="m 58.305087,133.30509 0,-15 -7.5,0 -7.5,0 0,-30.000006 0,-30 7.5,0 7.5,0 0,-7.5 0,-7.5 37.5,0 37.500003,0 0,7.5 0,7.5 7.5,0 7.5,0 0,30 0,30.000006 -7.5,0 -7.5,0 0,15 0,15 -7.5,0 -7.5,0 0,-15 0,-15 7.5,0 7.5,0 0,-30.000006 0,-30 -37.500003,0 -37.5,0 0,30 0,30.000006 7.5,0 7.5,0 0,15 0,15 -7.5,0 -7.5,0 0,-15 z m 30,0 0,-15 7.5,0 7.500003,0 0,15 0,15 -7.500003,0 -7.5,0 0,-15 z m -15,-45.000006 0,-7.5 7.5,0 7.5,0 0,7.5 0,7.5 -7.5,0 -7.5,0 0,-7.5 z m 30.000003,0 0,-7.5 7.5,0 7.5,0 0,7.5 0,7.5 -7.5,0 -7.5,0 0,-7.5 z"
     id="path5158"
     inkscape:connector-curvature="0" />
</svg>
